<?xml version="1.0" standalone="no"?>
<!DOCTYPE svg PUBLIC "-//W3C//DTD SVG 1.1//EN" "http://www.w3.org/Graphics/SVG/1.1/DTD/svg11.dtd" >
<svg xmlns="http://www.w3.org/2000/svg" xmlns:xlink="http://www.w3.org/1999/xlink" version="1.1">
<metadata></metadata>
<defs>
<font id="universal_mgregular" horiz-adv-x="493" >
<font-face units-per-em="2048" ascent="1638" descent="-410" />
<missing-glyph horiz-adv-x="229" />
<glyph horiz-adv-x="0" />
<glyph horiz-adv-x="682" />
<glyph unicode=" "  horiz-adv-x="229" />
<glyph unicode="&#x09;" horiz-adv-x="229" />
<glyph unicode="&#xa0;" horiz-adv-x="229" />
<glyph unicode="!" horiz-adv-x="342" d="M113 1473h116l-24 -1137h-68zM121 0v117h100v-117h-100z" />
<glyph unicode="&#x22;" horiz-adv-x="342" d="M39 1145v328h74v-328h-74zM227 1145v328h74v-328h-74z" />
<glyph unicode="#" horiz-adv-x="458" d="M-25 481v74h105q12 92 25.5 181t25.5 184h-100v71h108q16 119 31.5 241t30.5 241h73l-63 -482h100q16 119 31.5 241t30.5 241h73l-63 -482h98v-71h-106q-10 -94 -23.5 -183.5t-25.5 -181.5h98v-74h-107q-16 -119 -31.5 -240.5t-31.5 -240.5h-72l62 481h-99 q-16 -119 -31.5 -240.5t-31.5 -240.5h-72l62 481h-97zM154 555h98l51 365h-100q-10 -94 -23.5 -183.5t-25.5 -181.5z" />
<glyph unicode="$" horiz-adv-x="458" d="M49 133v287h86v-266q0 -53 24.5 -70.5t67.5 -17.5q45 0 70 17t25 71v249q0 55 -9.5 99.5t-33.5 87.5l-181 319q-27 47 -38 103.5t-11 99.5v236q0 57 36 92t103 41v161h72v-161q145 -6 146 -138v-270h-84v246q0 55 -25 72.5t-70 17.5q-43 0 -67.5 -17.5t-24.5 -72.5v-217 q0 -35 7.5 -71t25.5 -68l178 -318q23 -43 41.5 -101.5t18.5 -119.5v-297q0 -59 -33 -94t-113 -41v-164h-72v164q-78 8 -108.5 41t-30.5 100z" />
<glyph unicode="%" horiz-adv-x="569" d="M27 791v604q0 86 96 86q92 0 98 -86v-604q0 -41 -25.5 -63.5t-72.5 -22.5q-96 0 -96 86zM90 797q0 -35 33 -35t33 35v592q0 16 -8.5 26t-24.5 10t-24.5 -10t-8.5 -26v-592zM109 -72l276 1616h70l-275 -1616h-71zM346 80v602q0 43 25.5 65.5t70.5 22.5q92 0 99 -88v-602 q0 -43 -26 -65.5t-73 -22.5q-45 0 -70.5 22.5t-25.5 65.5zM410 86q0 -16 8 -26.5t24 -10.5t24.5 10.5t8.5 26.5v590q0 16 -8 26.5t-25 10.5q-16 0 -24 -10.5t-8 -26.5v-590z" />
<glyph unicode="&#x26;" d="M41 252v262q2 59 7 102t20 78q16 39 38.5 81t38.5 81l-55 176q-23 78 -22 187v112q0 59 32.5 104.5t108.5 45.5q70 0 104.5 -38t34.5 -97v-138q0 -45 -6 -90t-20 -84l-95 -194q23 -72 47.5 -145.5t47.5 -145.5q8 -23 13 -44.5t9 -43.5v401h72v-305q0 -35 -1 -71.5 t-3 -71.5q-2 -25 -3 -47.5t-1 -47.5q23 -74 48 -159.5t48 -159.5h-74l-39 129q-4 14 -7 26.5t-7 24.5q0 -37 -8.5 -70.5t-27.5 -60t-52 -42t-84 -15.5q-94 0 -129 64.5t-35 195.5zM125 231q0 -82 20.5 -123.5t69.5 -41.5q59 0 81.5 52t22.5 120v47q-35 117 -70.5 235.5 t-70.5 235.5q-6 -14 -11 -23.5t-11 -23.5q-16 -47 -23.5 -84t-7.5 -80v-314zM154 1153q0 -27 3 -55.5t13 -59.5l29 -92q10 25 18 43.5t19 42.5q16 35 21 74t5 68v161q0 33 -14.5 53.5t-40.5 20.5q-25 0 -39 -21.5t-14 -48.5v-186z" />
<glyph unicode="'" horiz-adv-x="229" d="M78 1145v328h72v-328h-72z" />
<glyph unicode="(" horiz-adv-x="266" d="M68 580q0 225 24.5 455.5t71.5 437.5h67q-39 -201 -55 -432.5t-16 -460.5q0 -231 15 -463t56 -432h-67q-47 207 -71.5 437t-24.5 458z" />
<glyph unicode=")" horiz-adv-x="266" d="M33 -315q39 201 55 433t16 462q0 229 -15 460.5t-56 432.5h67q47 -207 72 -437.5t25 -455.5q0 -227 -25 -458t-72 -437h-67z" />
<glyph unicode="*" horiz-adv-x="454" d="M20 1239v82l166 -18q-23 35 -49 68.5t-49 68.5l74 35l61 -144q16 35 32.5 73t33.5 71l73 -35l-94 -135l82 8l82 8v-82l-164 16q23 -31 47.5 -67.5t46.5 -65.5l-73 -39l-66 148q-16 -35 -30.5 -75t-30.5 -73l-74 39l94 133q-41 -4 -81 -8t-81 -8z" />
<glyph unicode="+" horiz-adv-x="1228" d="M92 481v74h481v481h74v-481h481v-74h-481v-481h-74v481h-481z" />
<glyph unicode="," horiz-adv-x="229" d="M43 -158l41 275h102l-71 -275h-72z" />
<glyph unicode="-" horiz-adv-x="227" d="M12 481v66h201v-66h-201z" />
<glyph unicode="." horiz-adv-x="229" d="M63 0v117h101v-117h-101z" />
<glyph unicode="/" horiz-adv-x="417" d="M20 -131l302 1737h71l-299 -1737h-74z" />
<glyph unicode="0" horiz-adv-x="458" d="M63 137v1206q0 66 42 102t122 36q164 0 164 -146v-1198q0 -70 -41 -107.5t-123 -37.5q-80 0 -122 38t-42 107zM150 147q0 -82 77 -81q80 0 80 81v1178q0 84 -80 84q-78 0 -77 -84v-1178z" />
<glyph unicode="1" horiz-adv-x="458" d="M117 1184v133l102 156h70v-1473h-86l-4 1319q-18 -31 -42 -69t-40 -66z" />
<glyph unicode="2" horiz-adv-x="458" d="M63 0v100l211 838q10 41 14.5 78t4.5 78v231q0 84 -70 84q-39 0 -52 -23.5t-13 -80.5v-191h-86v201q0 80 35.5 123t117.5 43q86 0 119 -47.5t33 -112.5v-219q0 -53 -5 -105.5t-20 -111.5q-53 -201 -107.5 -406t-105.5 -405h252v-74h-328z" />
<glyph unicode="3" horiz-adv-x="458" d="M63 137v244h87v-234q4 -82 75 -81q82 0 82 81v469q0 63 -21.5 82t-76.5 19h-31v71h27q45 0 68.5 21.5t23.5 93.5v422q0 41 -16.5 62.5t-59.5 21.5q-37 0 -51 -21.5t-14 -62.5v-209h-86v221q0 143 151 144q86 0 123 -37t37 -109v-454q0 -59 -22.5 -87t-51.5 -38 q31 -10 57.5 -39t26.5 -101v-479q0 -70 -41 -107.5t-123 -37.5q-80 0 -122 38t-42 107z" />
<glyph unicode="4" horiz-adv-x="458" d="M37 391v107l190 975h127v-1010h84v-72h-84v-391h-86v391h-231zM113 463h155l-4 840q-4 -25 -9 -53.5t-9 -53.5q-31 -182 -66 -366.5t-67 -366.5z" />
<glyph unicode="5" horiz-adv-x="458" d="M63 180v203h87v-225q0 -49 22.5 -70.5t54.5 -21.5q35 0 57.5 20t22.5 86v649q0 41 -14 65.5t-47 24.5q-29 0 -47.5 -12t-28.5 -44t-14 -86t-6 -138l-87 8l17 834h287v-72h-199q-4 -123 -8 -234.5t-8 -236.5q12 20 36.5 36.5t65.5 16.5q76 0 106.5 -42t30.5 -114v-659 q0 -80 -36 -128t-132 -48q-78 0 -119 45t-41 143z" />
<glyph unicode="6" horiz-adv-x="458" d="M63 137v1198q0 145 162 146q160 0 160 -146v-254h-84v244q0 84 -76 84t-75 -84l4 -399q31 43 104 43q78 0 105.5 -42t27.5 -114v-676q0 -70 -44 -107.5t-122 -37.5t-120 38t-42 107zM150 147q0 -41 22.5 -61t63.5 -20q72 0 71 81v662q0 88 -76 88q-31 0 -56 -30.5 t-25 -78.5v-641z" />
<glyph unicode="7" horiz-adv-x="458" d="M63 1401v72h328v-72l-170 -1401h-92l178 1401h-244z" />
<glyph unicode="8" horiz-adv-x="458" d="M63 137v557q0 51 20.5 79t49.5 40q-57 25 -57 125v405q0 66 34.5 102t114.5 36q82 0 118 -36t36 -102v-405q-2 -51 -14.5 -82t-40.5 -45q29 -10 48 -40t19 -77v-557q0 -70 -43 -107.5t-123 -37.5q-78 0 -120 38t-42 107zM150 147q0 -41 14 -61t61 -20q51 0 66.5 20 t15.5 61v545q0 41 -15.5 61.5t-66.5 20.5q-47 0 -61 -20.5t-14 -61.5v-545zM162 918q0 -31 13 -50.5t52 -19.5q41 0 54.5 19.5t13.5 50.5v421q0 35 -13.5 52.5t-54.5 17.5q-39 0 -52 -17.5t-13 -52.5v-421z" />
<glyph unicode="9" horiz-adv-x="458" d="M63 659v676q0 72 44.5 109t121.5 37q162 0 162 -146v-1198q0 -70 -41 -107.5t-121 -37.5q-78 0 -118.5 38t-40.5 107v256h86v-246q0 -82 73 -81q78 0 78 81l-4 402q-31 -45 -104 -45q-78 0 -107 42t-29 113zM150 664q0 -86 73 -86q31 0 57.5 29.5t26.5 76.5v641 q0 84 -88 84q-70 0 -69 -84v-661z" />
<glyph unicode=":" horiz-adv-x="229" d="M63 0v117h101v-117h-101zM63 911v117h101v-117h-101z" />
<glyph unicode=";" horiz-adv-x="229" d="M43 -158l41 275h102l-71 -275h-72zM84 911v117h100v-117h-100z" />
<glyph unicode="&#x3c;" horiz-adv-x="614" d="M45 494v69l518 502v-76l-477 -461q119 -117 238.5 -232.5t238.5 -232.5v-75z" />
<glyph unicode="=" horiz-adv-x="614" d="M45 285v73h518v-73h-518zM45 678v74h518v-74h-518z" />
<glyph unicode="&#x3e;" horiz-adv-x="614" d="M45 -12v75l479 465l-479 461v76l518 -502v-69z" />
<glyph unicode="?" horiz-adv-x="454" d="M86 1120v209q0 66 33 109t110 43q88 0 125 -36t37 -142v-193q0 -59 -11 -117.5t-28 -107.5l-37 -111q-20 -57 -30.5 -98t-10.5 -98v-242h-84v289q0 59 17.5 116.5t40.5 116.5q23 57 40 112.5t19 112.5v242q0 49 -20.5 66.5t-50.5 17.5q-33 0 -48.5 -19.5t-15.5 -66.5 v-203h-86zM186 0v117h101v-117h-101z" />
<glyph unicode="@" horiz-adv-x="1003" d="M63 741q0 115 35 213.5t95.5 171t142.5 113.5t176 41q88 0 164 -31.5t132 -91t88 -143.5t32 -187q0 -82 -25.5 -158.5t-66.5 -135t-90.5 -93t-98.5 -34.5q-33 0 -57.5 23.5t-28.5 74.5q-59 -98 -158 -98q-37 0 -65.5 18t-50 49t-32.5 72t-11 86q0 76 20.5 152.5t58 139 t91 102.5t118.5 40q57 0 92 -43t44 -92l28 104h54l-113 -434q-6 -23 -12.5 -46.5t-6.5 -37.5q0 -18 14.5 -31.5t31.5 -13.5q39 0 77.5 30.5t67.5 82t47 115t18 130.5q0 92 -30.5 165t-80.5 122t-114.5 76t-132.5 27q-84 0 -156.5 -39t-126 -106.5t-85 -156t-31.5 -186.5 q0 -104 31.5 -192t87 -150.5t128 -98.5t154.5 -36q98 0 188.5 58.5t143.5 156.5h57q-29 -66 -71.5 -117t-94 -86t-109 -54t-114.5 -19q-100 0 -183 40.5t-143.5 114.5t-94.5 174.5t-34 218.5zM299 637q0 -80 31.5 -123t87.5 -43q37 0 74.5 32t69.5 84t51.5 118.5t19.5 134.5 q0 74 -24.5 117.5t-82.5 43.5q-53 0 -95 -35.5t-71.5 -90t-45 -119t-15.5 -119.5z" />
<glyph unicode="A" horiz-adv-x="499" d="M20 0l164 1479h125l170 -1479h-94l-47 428h-188q-10 -104 -22.5 -214t-23.5 -214h-84zM158 502h174q-12 121 -25.5 237.5t-25.5 237.5q-4 20 -5.5 41.5t-5.5 42.5q-4 45 -8 79t-7 66.5t-7 67.5t-6 80q-4 -39 -6.5 -78t-6.5 -78q-4 -57 -8 -111.5t-10 -109.5 q-12 -117 -26.5 -238t-26.5 -237z" />
<glyph unicode="B" d="M61 0v1479h183q78 0 127 -38t49 -124v-428q0 -53 -26.5 -83t-67.5 -42q43 -10 73.5 -42t30.5 -97v-463q0 -86 -47 -124t-119 -38h-203zM156 74h77q57 0 80 20.5t23 61.5v467q0 100 -98 100h-82v-649zM156 797h82q53 0 70.5 30.5t17.5 65.5v428q0 45 -18.5 64.5 t-74.5 19.5h-77v-608z" />
<glyph unicode="C" horiz-adv-x="417" d="M33 156v1167q0 78 47 121t133 43q84 0 127 -43t43 -121v-248h-94v236q0 41 -15.5 71.5t-60.5 30.5q-41 0 -63.5 -22.5t-22.5 -61.5v-1179q0 -39 22.5 -61.5t63.5 -22.5q45 0 60.5 24.5t15.5 77.5v256h94v-268q0 -78 -43 -121t-127 -43q-86 0 -133 43t-47 121z" />
<glyph unicode="D" d="M61 0v1479h181q92 0 140 -38t48 -124v-1155q0 -86 -48 -124t-140 -38h-181zM156 74h77q102 0 103 82v1167q0 82 -103 82h-77v-1331z" />
<glyph unicode="E" horiz-adv-x="378" d="M61 0v1479h291v-74h-196v-608h184v-74h-184v-649h211v-74h-306z" />
<glyph unicode="F" horiz-adv-x="342" d="M61 0v1479h291v-74h-196v-608h188v-74h-188v-723h-95z" />
<glyph unicode="G" d="M61 156v1167q0 78 48.5 121t136.5 43q90 0 137 -43t47 -121v-244h-94v234q0 45 -25.5 72.5t-64.5 27.5q-37 0 -63.5 -27.5t-26.5 -72.5v-1163q0 -39 26.5 -61.5t63.5 -22.5q29 0 51 6t39 16v557h-82v74h176v-678l-18 -14q-23 -14 -65 -24.5t-101 -10.5q-88 0 -136.5 43 t-48.5 121z" />
<glyph unicode="H" d="M61 0v1479h95v-682h180v682h94v-1479h-94v723h-180v-723h-95z" />
<glyph unicode="I" horiz-adv-x="229" d="M68 0v1479h94v-1479h-94z" />
<glyph unicode="J" horiz-adv-x="378" d="M-2 147v256h94v-253q0 -39 13.5 -61.5t52.5 -22.5t51 22.5t12 61.5v1329h94v-1332q0 -72 -44 -113.5t-113 -41.5q-72 0 -116 42t-44 113z" />
<glyph unicode="K" horiz-adv-x="417" d="M61 0v1479h95v-1479h-95zM143 782l203 697h86l-203 -697q53 -190 111.5 -391t112.5 -391h-95z" />
<glyph unicode="L" horiz-adv-x="378" d="M61 0v1479h95v-1405h213v-74h-308z" />
<glyph unicode="M" horiz-adv-x="681" d="M68 0v1479h147l88 -889l11 -104.5t9.5 -94.5t7.5 -98l7 -119q6 104 14 217t19 199q23 213 47 443.5t47 445.5h145v-1479h-92v915q0 35 1 70t1 76t1 92t1 119q-4 -37 -8 -77t-8 -75q-8 -78 -15.5 -153.5t-13.5 -135.5q-18 -199 -40.5 -416.5t-41.5 -414.5h-112l-84 823 q-2 20 -4 45t-7 54q-6 55 -10 96t-8 79t-8 76.5t-8 88.5q2 -55 3 -105.5t3 -95.5q2 -39 2 -81v-65v-915h-94z" />
<glyph unicode="N" horiz-adv-x="530" d="M61 0v1479h136l137 -953q18 -145 53 -354q-6 123 -10 219t-4 148v940h94v-1479h-135l-142 940q-8 53 -20 156.5t-27 222.5q2 -59 4.5 -112.5t4.5 -96.5q2 -45 3 -77t1 -48v-985h-95z" />
<glyph unicode="O" d="M61 156v1167q0 78 48.5 121t136.5 43q90 0 137 -43t47 -121v-1167q0 -78 -47 -121t-137 -43q-88 0 -136.5 43t-48.5 121zM156 158q0 -45 24.5 -68.5t65.5 -23.5t65.5 23.5t24.5 68.5v1163q0 45 -24.5 68.5t-65.5 23.5t-65.5 -23.5t-24.5 -68.5v-1163z" />
<glyph unicode="P" horiz-adv-x="454" d="M61 0v1479h189q174 0 174 -146v-479q0 -66 -44 -106.5t-130 -40.5h-94v-707h-95zM156 780h82q41 0 66.5 20.5t25.5 61.5v459q0 43 -24.5 63.5t-67.5 20.5h-82v-625z" />
<glyph unicode="Q" d="M61 156v1167q0 78 48.5 121t138.5 43q88 0 135 -43t47 -121v-1135q0 -49 -7 -73.5t-36 -48.5q4 0 13.5 2t13.5 2q12 2 23.5 3t21.5 1h28v-74h-145q-23 -2 -47.5 -4t-46.5 -4q-90 0 -138.5 43t-48.5 121zM156 158q0 -45 25.5 -68.5t66.5 -23.5t64.5 23.5t23.5 68.5v1165 q0 43 -23.5 66.5t-64.5 23.5t-66.5 -23.5t-25.5 -66.5v-1165z" />
<glyph unicode="R" d="M61 0v1479h189q78 0 126 -35t48 -107v-434q0 -53 -18.5 -91t-79.5 -54q41 -12 69.5 -45t28.5 -90v-623h-94v623q0 39 -23.5 69.5t-81.5 30.5h-69v-723h-95zM156 797h73q100 0 101 90v434q0 84 -92 84h-82v-608z" />
<glyph unicode="S" horiz-adv-x="428" d="M33 154v266h86v-273q0 -33 17.5 -57t70.5 -24q47 0 69.5 19t22.5 67v251q0 57 -10 97.5t-33 91.5l-170 321q-25 47 -39 103.5t-14 97.5v215q0 74 47 116t129 42q86 0 129 -34t43 -107v-269h-86v260q0 76 -80 76q-41 0 -61.5 -23.5t-20.5 -56.5v-227q0 -68 33 -139 q41 -78 83 -159t83 -161q27 -51 44 -105.5t17 -117.5v-277q0 -72 -41 -113.5t-139 -41.5t-139 42t-41 120z" />
<glyph unicode="T" horiz-adv-x="344" d="M-20 1405v74h382v-74h-145v-1405h-92v1405h-145z" />
<glyph unicode="U" d="M61 156v1323h95v-1321q0 -45 24.5 -68.5t65.5 -23.5t65.5 23.5t24.5 68.5v1321h94v-1323q0 -78 -47 -121t-137 -43q-88 0 -136.5 43t-48.5 121z" />
<glyph unicode="V" horiz-adv-x="417" d="M-12 1479h94l98 -973q6 -68 11.5 -132.5t9.5 -129.5q4 -66 12 -127q4 47 7 95t7 95q2 47 5.5 98.5t7.5 100.5l96 973h92l-160 -1479h-121z" />
<glyph unicode="W" horiz-adv-x="681" d="M2 1479h84l59 -904q2 -23 3.5 -49t3.5 -49q2 -51 5 -91t5 -79t4 -80t6 -92q4 53 6 107.5t4 107.5q4 55 6 111.5t7 113.5l79 904h125l78 -904q6 -61 10.5 -108t8.5 -93t7 -95.5t7 -110.5q2 27 3 62.5t1 62.5q4 70 7 140.5t7 141.5l66 904h84l-111 -1479h-114l-86 936 q-4 25 -5.5 53.5t-5.5 52.5q-4 45 -8 80t-7 67t-6 66.5t-5 81.5q-4 -47 -6 -92t-5 -92q-4 -53 -7 -109.5t-7 -111.5l-80 -932h-121z" />
<glyph unicode="X" horiz-adv-x="417" d="M-18 0l168 770l-154 709h96l121 -617q29 150 61.5 308.5t61.5 308.5h88l-158 -709q41 -190 84 -386t84 -384h-96l-129 676q-16 -80 -33.5 -166t-36 -173t-36 -172t-33.5 -165h-88z" />
<glyph unicode="Y" horiz-adv-x="417" d="M-10 1479h96l125 -760l119 760h96l-172 -895v-584h-92v584q-18 100 -41 215.5t-45.5 232.5t-45 231.5t-40.5 215.5z" />
<glyph unicode="Z" horiz-adv-x="342" d="M-6 0v90l246 1315h-224v74h312v-90l-246 -1315h264v-74h-352z" />
<glyph unicode="[" horiz-adv-x="342" d="M86 -315v1788h219v-72h-133v-1645h133v-71h-219z" />
<glyph unicode="\" horiz-adv-x="417" d="M20 1606h74l299 -1737h-74z" />
<glyph unicode="]" horiz-adv-x="342" d="M35 -244h133v1645h-133v72h219v-1788h-219v71z" />
<glyph unicode="^" horiz-adv-x="614" d="M35 545l250 928h41l247 -928h-36l-232 848q-57 -211 -115.5 -424t-115.5 -424h-39z" />
<glyph unicode="_" horiz-adv-x="1024" d="M-2 -139h1024v-115h-1024v115z" />
<glyph unicode="`" horiz-adv-x="192" d="M-37 1405h107l86 -207h-66z" />
<glyph unicode="a" horiz-adv-x="499" d="M20 0l164 1479h125l170 -1479h-94l-47 428h-188q-10 -104 -22.5 -214t-23.5 -214h-84zM158 502h174q-12 121 -25.5 237.5t-25.5 237.5q-4 20 -5.5 41.5t-5.5 42.5q-4 45 -8 79t-7 66.5t-7 67.5t-6 80q-4 -39 -6.5 -78t-6.5 -78q-4 -57 -8 -111.5t-10 -109.5 q-12 -117 -26.5 -238t-26.5 -237z" />
<glyph unicode="b" d="M61 0v1479h183q78 0 127 -38t49 -124v-428q0 -53 -26.5 -83t-67.5 -42q43 -10 73.5 -42t30.5 -97v-463q0 -86 -47 -124t-119 -38h-203zM156 74h77q57 0 80 20.5t23 61.5v467q0 100 -98 100h-82v-649zM156 797h82q53 0 70.5 30.5t17.5 65.5v428q0 45 -18.5 64.5 t-74.5 19.5h-77v-608z" />
<glyph unicode="c" horiz-adv-x="417" d="M33 156v1167q0 78 47 121t133 43q84 0 127 -43t43 -121v-248h-94v236q0 41 -15.5 71.5t-60.5 30.5q-41 0 -63.5 -22.5t-22.5 -61.5v-1179q0 -39 22.5 -61.5t63.5 -22.5q45 0 60.5 24.5t15.5 77.5v256h94v-268q0 -78 -43 -121t-127 -43q-86 0 -133 43t-47 121z" />
<glyph unicode="d" d="M61 0v1479h181q92 0 140 -38t48 -124v-1155q0 -86 -48 -124t-140 -38h-181zM156 74h77q102 0 103 82v1167q0 82 -103 82h-77v-1331z" />
<glyph unicode="e" horiz-adv-x="378" d="M61 0v1479h291v-74h-196v-608h184v-74h-184v-649h211v-74h-306z" />
<glyph unicode="f" horiz-adv-x="342" d="M61 0v1479h291v-74h-196v-608h188v-74h-188v-723h-95z" />
<glyph unicode="g" d="M61 156v1167q0 78 48.5 121t136.5 43q90 0 137 -43t47 -121v-244h-94v234q0 45 -25.5 72.5t-64.5 27.5q-37 0 -63.5 -27.5t-26.5 -72.5v-1163q0 -39 26.5 -61.5t63.5 -22.5q29 0 51 6t39 16v557h-82v74h176v-678l-18 -14q-23 -14 -65 -24.5t-101 -10.5q-88 0 -136.5 43 t-48.5 121z" />
<glyph unicode="h" d="M61 0v1479h95v-682h180v682h94v-1479h-94v723h-180v-723h-95z" />
<glyph unicode="i" horiz-adv-x="229" d="M68 0v1479h94v-1479h-94z" />
<glyph unicode="j" horiz-adv-x="378" d="M-2 147v256h94v-253q0 -39 13.5 -61.5t52.5 -22.5t51 22.5t12 61.5v1329h94v-1332q0 -72 -44 -113.5t-113 -41.5q-72 0 -116 42t-44 113z" />
<glyph unicode="k" horiz-adv-x="417" d="M61 0v1479h95v-1479h-95zM143 782l203 697h86l-203 -697q53 -190 111.5 -391t112.5 -391h-95z" />
<glyph unicode="l" horiz-adv-x="378" d="M61 0v1479h95v-1405h213v-74h-308z" />
<glyph unicode="m" horiz-adv-x="681" d="M68 0v1479h147l88 -889l11 -104.5t9.5 -94.5t7.5 -98l7 -119q6 104 14 217t19 199q23 213 47 443.5t47 445.5h145v-1479h-92v915q0 35 1 70t1 76t1 92t1 119q-4 -37 -8 -77t-8 -75q-8 -78 -15.5 -153.5t-13.5 -135.5q-18 -199 -40.5 -416.5t-41.5 -414.5h-112l-84 823 q-2 20 -4 45t-7 54q-6 55 -10 96t-8 79t-8 76.5t-8 88.5q2 -55 3 -105.5t3 -95.5q2 -39 2 -81v-65v-915h-94z" />
<glyph unicode="n" horiz-adv-x="530" d="M61 0v1479h136l137 -953q18 -145 53 -354q-6 123 -10 219t-4 148v940h94v-1479h-135l-142 940q-8 53 -20 156.5t-27 222.5q2 -59 4.5 -112.5t4.5 -96.5q2 -45 3 -77t1 -48v-985h-95z" />
<glyph unicode="o" d="M61 156v1167q0 78 48.5 121t136.5 43q90 0 137 -43t47 -121v-1167q0 -78 -47 -121t-137 -43q-88 0 -136.5 43t-48.5 121zM156 158q0 -45 24.5 -68.5t65.5 -23.5t65.5 23.5t24.5 68.5v1163q0 45 -24.5 68.5t-65.5 23.5t-65.5 -23.5t-24.5 -68.5v-1163z" />
<glyph unicode="p" horiz-adv-x="454" d="M61 0v1479h189q174 0 174 -146v-479q0 -66 -44 -106.5t-130 -40.5h-94v-707h-95zM156 780h82q41 0 66.5 20.5t25.5 61.5v459q0 43 -24.5 63.5t-67.5 20.5h-82v-625z" />
<glyph unicode="q" d="M61 156v1167q0 78 48.5 121t138.5 43q88 0 135 -43t47 -121v-1135q0 -49 -7 -73.5t-36 -48.5q4 0 13.5 2t13.5 2q12 2 23.5 3t21.5 1h28v-74h-145q-23 -2 -47.5 -4t-46.5 -4q-90 0 -138.5 43t-48.5 121zM156 158q0 -45 25.5 -68.5t66.5 -23.5t64.5 23.5t23.5 68.5v1165 q0 43 -23.5 66.5t-64.5 23.5t-66.5 -23.5t-25.5 -66.5v-1165z" />
<glyph unicode="r" d="M61 0v1479h189q78 0 126 -35t48 -107v-434q0 -53 -18.5 -91t-79.5 -54q41 -12 69.5 -45t28.5 -90v-623h-94v623q0 39 -23.5 69.5t-81.5 30.5h-69v-723h-95zM156 797h73q100 0 101 90v434q0 84 -92 84h-82v-608z" />
<glyph unicode="s" horiz-adv-x="428" d="M33 154v266h86v-273q0 -33 17.5 -57t70.5 -24q47 0 69.5 19t22.5 67v251q0 57 -10 97.5t-33 91.5l-170 321q-25 47 -39 103.5t-14 97.5v215q0 74 47 116t129 42q86 0 129 -34t43 -107v-269h-86v260q0 76 -80 76q-41 0 -61.5 -23.5t-20.5 -56.5v-227q0 -68 33 -139 q41 -78 83 -159t83 -161q27 -51 44 -105.5t17 -117.5v-277q0 -72 -41 -113.5t-139 -41.5t-139 42t-41 120z" />
<glyph unicode="t" horiz-adv-x="344" d="M-20 1405v74h382v-74h-145v-1405h-92v1405h-145z" />
<glyph unicode="u" d="M61 156v1323h95v-1321q0 -45 24.5 -68.5t65.5 -23.5t65.5 23.5t24.5 68.5v1321h94v-1323q0 -78 -47 -121t-137 -43q-88 0 -136.5 43t-48.5 121z" />
<glyph unicode="v" horiz-adv-x="417" d="M-12 1479h94l98 -973q6 -68 11.5 -132.5t9.5 -129.5q4 -66 12 -127q4 47 7 95t7 95q2 47 5.5 98.5t7.5 100.5l96 973h92l-160 -1479h-121z" />
<glyph unicode="w" horiz-adv-x="681" d="M2 1479h84l59 -904q2 -23 3.5 -49t3.5 -49q2 -51 5 -91t5 -79t4 -80t6 -92q4 53 6 107.5t4 107.5q4 55 6 111.5t7 113.5l79 904h125l78 -904q6 -61 10.5 -108t8.5 -93t7 -95.5t7 -110.5q2 27 3 62.5t1 62.5q4 70 7 140.5t7 141.5l66 904h84l-111 -1479h-114l-86 936 q-4 25 -5.5 53.5t-5.5 52.5q-4 45 -8 80t-7 67t-6 66.5t-5 81.5q-4 -47 -6 -92t-5 -92q-4 -53 -7 -109.5t-7 -111.5l-80 -932h-121z" />
<glyph unicode="x" horiz-adv-x="417" d="M-18 0l168 770l-154 709h96l121 -617q29 150 61.5 308.5t61.5 308.5h88l-158 -709q41 -190 84 -386t84 -384h-96l-129 676q-16 -80 -33.5 -166t-36 -173t-36 -172t-33.5 -165h-88z" />
<glyph unicode="y" horiz-adv-x="417" d="M-10 1479h96l125 -760l119 760h96l-172 -895v-584h-92v584q-18 100 -41 215.5t-45.5 232.5t-45 231.5t-40.5 215.5z" />
<glyph unicode="z" horiz-adv-x="342" d="M-6 0v90l246 1315h-224v74h312v-90l-246 -1315h264v-74h-352z" />
<glyph unicode="{" horiz-adv-x="454" d="M63 543v71q41 0 81 34t40 97v494q0 133 31 183.5t102 50.5h70v-72h-57q-39 0 -50.5 -42t-11.5 -120v-477q0 -82 -30.5 -126t-69.5 -58q37 -16 68.5 -61.5t31.5 -119.5v-479q0 -78 11.5 -120t50.5 -42h57v-71h-70q-72 0 -102.5 50t-30.5 183v496q0 61 -40 95t-81 34z" />
<glyph unicode="|" horiz-adv-x="454" d="M184 -8v1489h84v-1489h-84z" />
<glyph unicode="}" horiz-adv-x="454" d="M63 -244h60q39 0 50 42t11 120v479q0 80 30 125t71 60q-39 14 -70 59t-31 121v477q0 78 -11 120t-50 42h-60v72h72q70 0 101.5 -50.5t31.5 -183.5v-494q0 -63 40 -97t79 -34v-71q-39 0 -79 -34t-40 -95v-496q0 -133 -31.5 -183t-101.5 -50h-72v71z" />
<glyph unicode="~" horiz-adv-x="614" d="M70 449q23 72 49 123t78 51q33 0 62.5 -21.5t55.5 -50.5q25 -25 49.5 -45.5t47.5 -20.5q18 0 32.5 14.5t26.5 37t21.5 50t15.5 54.5l31 -53q-23 -78 -48.5 -126t-78.5 -48q-31 0 -59.5 21.5t-55.5 49.5q-25 23 -50.5 44.5t-49.5 21.5q-16 0 -30.5 -13.5t-25 -34 t-18.5 -45t-14 -44.5v2q-2 -4 -4.5 -10.5t-2.5 -10.5z" />
<glyph unicode="&#xa9;" horiz-adv-x="704" d="M0 776q0 61 23.5 116.5t64.5 96.5t96.5 64.5t116.5 23.5t116.5 -23.5t96.5 -64.5t64.5 -96t23.5 -117q0 -61 -23.5 -116.5t-64.5 -96.5t-96.5 -64.5t-116.5 -23.5t-116.5 23.5t-96.5 64.5t-64.5 96.5t-23.5 116.5zM37 776q0 -55 21.5 -103t57.5 -85t84 -57.5t101 -20.5 q55 0 103.5 20.5t84 57.5t56 85t20.5 103t-20.5 103.5t-56 85t-84 57t-103.5 20.5q-53 0 -101 -20.5t-84 -57t-57.5 -85t-21.5 -103.5zM125 778q0 90 52 140.5t130 50.5q63 0 106.5 -32t53.5 -97h-37q-20 94 -123 94q-74 0 -108.5 -50t-34.5 -106q0 -66 36 -113t101 -47 q57 0 88 27t41 74h37q-10 -61 -53 -98t-113 -37q-76 0 -126 48t-50 146z" />
<glyph unicode="&#xad;" horiz-adv-x="227" d="M12 481v66h201v-66h-201z" />
<glyph unicode="&#xae;" horiz-adv-x="688" d="M0 786q0 61 22.5 114.5t62.5 93.5t93 62.5t115 22.5q61 0 114.5 -22.5t93.5 -62.5t62.5 -93t22.5 -115q0 -61 -22.5 -114.5t-62.5 -93t-93.5 -62t-114.5 -22.5t-114.5 22.5t-93.5 62t-62.5 93t-22.5 114.5zM37 786q0 -53 20.5 -100t55 -82t81 -55.5t99.5 -20.5t99 20.5 t81 55.5t55.5 82t20.5 100t-20.5 100.5t-55.5 83.5t-81 56.5t-99 20.5t-99.5 -20.5t-81 -56.5t-55 -83t-20.5 -101zM182 612v351h135q117 0 117 -99q0 -43 -27.5 -65.5t-64.5 -28.5q25 -39 51.5 -79t50.5 -79h-36l-103 158h-86v-158h-37zM219 803h86q41 0 66.5 13t25.5 48 t-24.5 50.5t-59.5 15.5h-94v-127z" />
<glyph unicode="&#xb7;" horiz-adv-x="1705" />
<glyph unicode="&#xc0;" horiz-adv-x="499" d="M20 0l164 1479h125l170 -1479h-94l-47 428h-188q-10 -104 -22.5 -214t-23.5 -214h-84zM113 1761h107l86 -207h-66zM158 502h174q-12 121 -25.5 237.5t-25.5 237.5q-4 20 -5.5 41.5t-5.5 42.5q-4 45 -8 79t-7 66.5t-7 67.5t-6 80q-4 -39 -6.5 -78t-6.5 -78 q-4 -57 -8 -111.5t-10 -109.5q-12 -117 -26.5 -238t-26.5 -237z" />
<glyph unicode="&#xc1;" horiz-adv-x="499" d="M20 0l164 1479h125l170 -1479h-94l-47 428h-188q-10 -104 -22.5 -214t-23.5 -214h-84zM158 502h174q-12 121 -25.5 237.5t-25.5 237.5q-4 20 -5.5 41.5t-5.5 42.5q-4 45 -8 79t-7 66.5t-7 67.5t-6 80q-4 -39 -6.5 -78t-6.5 -78q-4 -57 -8 -111.5t-10 -109.5 q-12 -117 -26.5 -238t-26.5 -237zM231 1530l56 213h67l-80 -213h-43z" />
<glyph unicode="&#xc2;" horiz-adv-x="499" d="M20 0l164 1479h125l170 -1479h-94l-47 428h-188q-10 -104 -22.5 -214t-23.5 -214h-84zM147 1530l93 227h16l92 -227h-51l-49 129q-12 -43 -18.5 -59.5t-24.5 -69.5h-58zM158 502h174q-12 121 -25.5 237.5t-25.5 237.5q-4 20 -5.5 41.5t-5.5 42.5q-4 45 -8 79t-7 66.5 t-7 67.5t-6 80q-4 -39 -6.5 -78t-6.5 -78q-4 -57 -8 -111.5t-10 -109.5q-12 -117 -26.5 -238t-26.5 -237z" />
<glyph unicode="&#xc3;" horiz-adv-x="499" d="M20 0l164 1479h125l170 -1479h-94l-47 428h-188q-10 -104 -22.5 -214t-23.5 -214h-84zM119 1659q14 53 30.5 90t45.5 37q20 0 37.5 -15.5t35.5 -35.5q12 -18 27.5 -33.5t28.5 -15.5q12 0 20 11t15.5 26.5t13.5 37t8 41.5l18 -41q-12 -57 -27.5 -92t-47.5 -35 q-18 0 -35 15.5t-33 36.5q-14 16 -29.5 32.5t-31.5 16.5q-8 0 -17.5 -10.5t-15.5 -26t-11.5 -32.5t-7.5 -32v2q-2 -4 -3 -19t-1 -18zM158 502h174q-12 121 -25.5 237.5t-25.5 237.5q-4 20 -5.5 41.5t-5.5 42.5q-4 45 -8 79t-7 66.5t-7 67.5t-6 80q-4 -39 -6.5 -78t-6.5 -78 q-4 -57 -8 -111.5t-10 -109.5q-12 -117 -26.5 -238t-26.5 -237z" />
<glyph unicode="&#xca;" horiz-adv-x="378" d="M61 0v1479h291v-74h-196v-608h184v-74h-184v-649h211v-74h-306zM119 1530l92 227h16l92 -227h-51l-49 129q-12 -43 -18 -59.5t-25 -69.5h-57z" />
<glyph unicode="&#xcd;" horiz-adv-x="229" d="M68 0v1479h94v-1479h-94zM88 1530l55 213h68l-80 -213h-43z" />
<glyph unicode="&#xd0;" horiz-adv-x="497" d="M-59 678v74h286v-74h-286zM41 0v1479h180q92 0 140.5 -38t48.5 -124v-1155q0 -86 -48.5 -124t-140.5 -38h-180zM135 74h78q102 0 102 82v1167q0 82 -102 82h-78v-1331z" />
<glyph unicode="&#xd2;" d="M61 156v1167q0 78 48.5 121t136.5 43q90 0 137 -43t47 -121v-1167q0 -78 -47 -121t-137 -43q-88 0 -136.5 43t-48.5 121zM129 1757h107l86 -207h-66zM156 158q0 -45 24.5 -68.5t65.5 -23.5t65.5 23.5t24.5 68.5v1163q0 45 -24.5 68.5t-65.5 23.5t-65.5 -23.5t-24.5 -68.5 v-1163z" />
<glyph unicode="&#xd3;" d="M61 156v1167q0 78 48.5 121t136.5 43q90 0 137 -43t47 -121v-1167q0 -78 -47 -121t-137 -43q-88 0 -136.5 43t-48.5 121zM156 158q0 -45 24.5 -68.5t65.5 -23.5t65.5 23.5t24.5 68.5v1163q0 45 -24.5 68.5t-65.5 23.5t-65.5 -23.5t-24.5 -68.5v-1163zM231 1530l56 213h67 l-80 -213h-43z" />
<glyph unicode="&#xd4;" d="M61 156v1167q0 78 48.5 121t136.5 43q90 0 137 -43t47 -121v-1167q0 -78 -47 -121t-137 -43q-88 0 -136.5 43t-48.5 121zM152 1530l92 227h16l92 -227h-51l-49 129q-12 -43 -18.5 -59.5t-24.5 -69.5h-57zM156 158q0 -45 24.5 -68.5t65.5 -23.5t65.5 23.5t24.5 68.5v1163 q0 45 -24.5 68.5t-65.5 23.5t-65.5 -23.5t-24.5 -68.5v-1163z" />
<glyph unicode="&#xd5;" d="M61 156v1167q0 78 48.5 121t136.5 43q90 0 137 -43t47 -121v-1167q0 -78 -47 -121t-137 -43q-88 0 -136.5 43t-48.5 121zM117 1659q14 53 30.5 90t45.5 37q20 0 37.5 -15.5t35.5 -35.5q12 -18 27.5 -33.5t28.5 -15.5q12 0 20 11t15.5 26.5t13.5 37t8 41.5l18 -41 q-12 -57 -27.5 -92t-47.5 -35q-18 0 -35 15.5t-33 36.5q-14 16 -29.5 32.5t-31.5 16.5q-8 0 -17.5 -10.5t-15.5 -26t-11.5 -32.5t-7.5 -32v2q-2 -4 -3 -19t-1 -18zM156 158q0 -45 24.5 -68.5t65.5 -23.5t65.5 23.5t24.5 68.5v1163q0 45 -24.5 68.5t-65.5 23.5t-65.5 -23.5 t-24.5 -68.5v-1163z" />
<glyph unicode="&#xda;" d="M61 156v1323h95v-1321q0 -45 24.5 -68.5t65.5 -23.5t65.5 23.5t24.5 68.5v1321h94v-1323q0 -78 -47 -121t-137 -43q-88 0 -136.5 43t-48.5 121zM231 1530l56 213h67l-80 -213h-43z" />
<glyph unicode="&#xdd;" horiz-adv-x="417" d="M-10 1479h96l125 -760l119 760h96l-172 -895v-584h-92v584q-18 100 -41 215.5t-45.5 232.5t-45 231.5t-40.5 215.5zM188 1530l56 213h67l-80 -213h-43z" />
<glyph unicode="&#xe0;" horiz-adv-x="499" d="M20 0l164 1479h125l170 -1479h-94l-47 428h-188q-10 -104 -22.5 -214t-23.5 -214h-84zM158 502h174q-12 121 -25.5 237.5t-25.5 237.5q-4 20 -5.5 41.5t-5.5 42.5q-4 45 -8 79t-7 66.5t-7 67.5t-6 80q-4 -39 -6.5 -78t-6.5 -78q-4 -57 -8 -111.5t-10 -109.5 q-12 -117 -26.5 -238t-26.5 -237zM168 1759h59l47 -225h-36z" />
<glyph unicode="&#xe1;" horiz-adv-x="499" d="M20 0l164 1479h125l170 -1479h-94l-47 428h-188q-10 -104 -22.5 -214t-23.5 -214h-84zM158 502h174q-12 121 -25.5 237.5t-25.5 237.5q-4 20 -5.5 41.5t-5.5 42.5q-4 45 -8 79t-7 66.5t-7 67.5t-6 80q-4 -39 -6.5 -78t-6.5 -78q-4 -57 -8 -111.5t-10 -109.5 q-12 -117 -26.5 -238t-26.5 -237zM213 1530l55 213h68l-80 -213h-43z" />
<glyph unicode="&#xe2;" horiz-adv-x="499" d="M20 0l164 1479h125l170 -1479h-94l-47 428h-188q-10 -104 -22.5 -214t-23.5 -214h-84zM154 1530l92 227h16l92 -227h-51l-49 129q-12 -43 -18.5 -59.5t-24.5 -69.5h-57zM158 502h174q-12 121 -25.5 237.5t-25.5 237.5q-4 20 -5.5 41.5t-5.5 42.5q-4 45 -8 79t-7 66.5 t-7 67.5t-6 80q-4 -39 -6.5 -78t-6.5 -78q-4 -57 -8 -111.5t-10 -109.5q-12 -117 -26.5 -238t-26.5 -237z" />
<glyph unicode="&#xe3;" horiz-adv-x="499" d="M20 0l164 1479h125l170 -1479h-94l-47 428h-188q-10 -104 -22.5 -214t-23.5 -214h-84zM119 1659q14 53 30.5 90t45.5 37q20 0 37.5 -15.5t35.5 -35.5q12 -18 27.5 -33.5t28.5 -15.5q12 0 20 11t15.5 26.5t13.5 37t8 41.5l18 -41q-12 -57 -27.5 -92t-47.5 -35 q-18 0 -35 15.5t-33 36.5q-14 16 -29.5 32.5t-31.5 16.5q-8 0 -17.5 -10.5t-15.5 -26t-11.5 -32.5t-7.5 -32v2q-2 -4 -3 -19t-1 -18zM158 502h174q-12 121 -25.5 237.5t-25.5 237.5q-4 20 -5.5 41.5t-5.5 42.5q-4 45 -8 79t-7 66.5t-7 67.5t-6 80q-4 -39 -6.5 -78t-6.5 -78 q-4 -57 -8 -111.5t-10 -109.5q-12 -117 -26.5 -238t-26.5 -237z" />
<glyph unicode="&#xe8;" horiz-adv-x="378" d="M61 0v1479h291v-74h-196v-608h184v-74h-184v-649h211v-74h-306zM147 1759h60l47 -225h-37z" />
<glyph unicode="&#xe9;" horiz-adv-x="378" d="M61 0v1479h291v-74h-196v-608h184v-74h-184v-649h211v-74h-306zM170 1530l55 213h68l-80 -213h-43z" />
<glyph unicode="&#xea;" horiz-adv-x="378" d="M61 0v1479h291v-74h-196v-608h184v-74h-184v-649h211v-74h-306zM106 1530l93 227h16l92 -227h-51l-49 129q-12 -43 -18.5 -59.5t-24.5 -69.5h-58z" />
<glyph unicode="&#xec;" horiz-adv-x="229" d="M45 1759h59l48 -225h-37zM68 0v1479h94v-1479h-94z" />
<glyph unicode="&#xed;" horiz-adv-x="229" d="M68 0v1479h94v-1479h-94zM88 1530l55 213h68l-80 -213h-43z" />
<glyph unicode="&#xf2;" d="M61 156v1167q0 78 48.5 121t136.5 43q90 0 137 -43t47 -121v-1167q0 -78 -47 -121t-137 -43q-88 0 -136.5 43t-48.5 121zM156 158q0 -45 24.5 -68.5t65.5 -23.5t65.5 23.5t24.5 68.5v1163q0 45 -24.5 68.5t-65.5 23.5t-65.5 -23.5t-24.5 -68.5v-1163zM188 1759h60 l47 -225h-37z" />
<glyph unicode="&#xf3;" d="M61 156v1167q0 78 48.5 121t136.5 43q90 0 137 -43t47 -121v-1167q0 -78 -47 -121t-137 -43q-88 0 -136.5 43t-48.5 121zM156 158q0 -45 24.5 -68.5t65.5 -23.5t65.5 23.5t24.5 68.5v1163q0 45 -24.5 68.5t-65.5 23.5t-65.5 -23.5t-24.5 -68.5v-1163zM231 1530l56 213h67 l-80 -213h-43z" />
<glyph unicode="&#xf4;" d="M61 156v1167q0 78 48.5 121t136.5 43q90 0 137 -43t47 -121v-1167q0 -78 -47 -121t-137 -43q-88 0 -136.5 43t-48.5 121zM143 1530l93 227h16l92 -227h-51l-49 129q-12 -43 -18.5 -59.5t-24.5 -69.5h-58zM156 158q0 -45 24.5 -68.5t65.5 -23.5t65.5 23.5t24.5 68.5v1163 q0 45 -24.5 68.5t-65.5 23.5t-65.5 -23.5t-24.5 -68.5v-1163z" />
<glyph unicode="&#xf5;" d="M61 156v1167q0 78 48.5 121t136.5 43q90 0 137 -43t47 -121v-1167q0 -78 -47 -121t-137 -43q-88 0 -136.5 43t-48.5 121zM117 1659q14 53 30.5 90t45.5 37q20 0 37.5 -15.5t35.5 -35.5q12 -18 27.5 -33.5t28.5 -15.5q12 0 20 11t15.5 26.5t13.5 37t8 41.5l18 -41 q-12 -57 -27.5 -92t-47.5 -35q-18 0 -35 15.5t-33 36.5q-14 16 -29.5 32.5t-31.5 16.5q-8 0 -17.5 -10.5t-15.5 -26t-11.5 -32.5t-7.5 -32v2q-2 -4 -3 -19t-1 -18zM156 158q0 -45 24.5 -68.5t65.5 -23.5t65.5 23.5t24.5 68.5v1163q0 45 -24.5 68.5t-65.5 23.5t-65.5 -23.5 t-24.5 -68.5v-1163z" />
<glyph unicode="&#xf8;" horiz-adv-x="501" d="M0 2l74 676h59l78 -676h-43l-23 195h-86q-2 -23 -4 -47.5t-6 -49.5q-4 -27 -6 -51t-4 -47h-39zM63 229h78q-4 29 -5 55.5t-5 55.5q-4 27 -6 53.5t-4 55.5q-2 4 -3 8t-1 10q0 12 -2 20q-2 10 -2 18.5t-2 16.5t-2 15.5t-3 15.5v14t-2 17q0 8 -1 16t-1 18q-2 -8 -2 -16 t-2 -18q0 -10 -1 -17.5t-1 -17.5q-2 -12 -3 -25.5t-1 -25.5q-2 -12 -2 -24.5t-2 -24.5q-4 -29 -7 -55.5t-7 -53.5q-2 -29 -4 -56.5t-7 -54.5zM236 70v123h36v-125q0 -12 11 -27q6 -10 32 -10q20 0 31 8q10 10 10 29v116q0 27 -6 45q-4 23 -14 41l-78 148l-9 22.5t-9 24.5 q-4 14 -4 24.5v20.5v98q0 35 20 54q25 20 59 20q37 0 60 -16q18 -16 18 -50v-122h-39v118q0 35 -37 35q-16 0 -28 -12q-8 -8 -8 -25v-104q0 -33 14 -64q10 -16 18.5 -35.5t18.5 -35.5l19 -38t20 -38q8 -10 12 -22.5t8 -24.5t6 -25.5t2 -27.5v-127q0 -33 -18 -52 q-10 -10 -25.5 -15t-40.5 -5q-39 0 -63 20q-16 16 -16 54z" />
<glyph unicode="&#xf9;" d="M61 156v1323h95v-1321q0 -45 24.5 -68.5t65.5 -23.5t65.5 23.5t24.5 68.5v1321h94v-1323q0 -78 -47 -121t-137 -43q-88 0 -136.5 43t-48.5 121zM188 1759h60l47 -225h-37z" />
<glyph unicode="&#xfa;" d="M61 156v1323h95v-1321q0 -45 24.5 -68.5t65.5 -23.5t65.5 23.5t24.5 68.5v1321h94v-1323q0 -78 -47 -121t-137 -43q-88 0 -136.5 43t-48.5 121zM231 1530l56 213h67l-80 -213h-43z" />
<glyph unicode="&#xfd;" horiz-adv-x="417" d="M-10 1479h96l125 -760l119 760h96l-172 -895v-584h-92v584q-18 100 -41 215.5t-45.5 232.5t-45 231.5t-40.5 215.5zM188 1530l56 213h67l-80 -213h-43z" />
<glyph unicode="&#x2000;" horiz-adv-x="901" />
<glyph unicode="&#x2001;" horiz-adv-x="1802" />
<glyph unicode="&#x2002;" horiz-adv-x="901" />
<glyph unicode="&#x2003;" horiz-adv-x="1802" />
<glyph unicode="&#x2004;" horiz-adv-x="600" />
<glyph unicode="&#x2005;" horiz-adv-x="450" />
<glyph unicode="&#x2006;" horiz-adv-x="300" />
<glyph unicode="&#x2007;" horiz-adv-x="300" />
<glyph unicode="&#x2008;" horiz-adv-x="225" />
<glyph unicode="&#x2009;" horiz-adv-x="360" />
<glyph unicode="&#x200a;" horiz-adv-x="100" />
<glyph unicode="&#x2010;" horiz-adv-x="227" d="M12 481v66h201v-66h-201z" />
<glyph unicode="&#x2011;" horiz-adv-x="227" d="M12 481v66h201v-66h-201z" />
<glyph unicode="&#x2012;" horiz-adv-x="227" d="M12 481v66h201v-66h-201z" />
<glyph unicode="&#x2013;" horiz-adv-x="788" d="M0 0v674h135v-33h-92v-279h86v-32h-86v-330h-43zM160 0v674h43v-674h-43zM262 0v674h43v-641h98v-33h-141zM438 0v674h68l39 -406q4 -31 6 -47q2 -10 2 -21.5t2 -21.5q2 -12 2 -23.5t2 -21.5q0 -12 1 -25.5t1 -29.5q2 23 3 48.5t3 51.5q4 27 5 48.5t6 41.5q4 49 10 99.5 t10 103.5q6 53 11 104.5t9 98.5h68v-674h-41v418v31v34v43v56q0 -14 -4 -35q0 -10 -1 -18.5t-3 -18.5q-2 -16 -3 -34.5t-3 -35.5q-4 -35 -6 -61q-10 -92 -19 -191q-6 -49 -10 -97t-8 -91h-51l-39 375q-2 6 -2 20q-2 6 -2 12.5t-2 14.5q-2 12 -2.5 22.5t-0.5 20.5 q-4 20 -4 35q-4 20 -4 35q-2 10 -3 20t-1 20v-47q2 -12 2 -23v-22q2 -8 2 -17v-20v-28v-418h-43z" />
<glyph unicode="&#x2014;" horiz-adv-x="2074" d="M12 481v66h2048v-66h-2048z" />
<glyph unicode="&#x2018;" horiz-adv-x="229" d="M37 1145l80 328h71l-47 -328h-104z" />
<glyph unicode="&#x2019;" horiz-adv-x="229" d="M39 1145l49 328h102l-77 -328h-74z" />
<glyph unicode="&#x201a;" horiz-adv-x="313" d="M0 0l74 678h59l78 -678h-43l-23 197h-86q-2 -23 -4 -47.5t-6 -51.5q-4 -25 -5 -49t-5 -49h-39zM63 229h78q-2 29 -4 55.5t-6 53.5q-4 29 -6 54.5t-4 53.5q-2 6 -3 10.5t-1 10.5v9t-2 9q-2 10 -2 19.5t-2 15.5q-2 10 -2 16.5t-3 14.5v15t-2 18q0 8 -1 16t-1 18 q-2 -8 -2 -16t-2 -18q0 -10 -1 -18.5t-1 -16.5q-2 -14 -3 -26.5t-1 -24.5q-2 -12 -2 -24.5t-2 -27.5q-4 -27 -7 -53t-7 -55q-2 -29 -4 -55.5t-7 -53.5z" />
<glyph unicode="&#x201c;" horiz-adv-x="342" d="M12 1145l80 328h74l-49 -328h-105zM172 1145l80 328h74l-50 -328h-104z" />
<glyph unicode="&#x201d;" horiz-adv-x="342" d="M14 1145l49 328h105l-80 -328h-74zM174 1145l49 328h105l-80 -328h-74z" />
<glyph unicode="&#x201e;" horiz-adv-x="1699" d="M0 965v114h127v152l149 45v-197h381v152l148 45v-197h366v39q0 86 21.5 162t73.5 127q43 41 96 58.5t106 17.5q41 0 74 -7.5t55 -15.5l-22 -117q-16 6 -39 12.5t-55 6.5q-49 0 -80 -19.5t-48.5 -53.5t-24.5 -77t-7 -90v-43h233l-34 -114h-199v-713h-150v713h-116v86 l-35 -86h-215v-447q0 -78 24.5 -119t85.5 -41q57 0 89 9l8 -111q-23 -10 -56.5 -17.5t-76.5 -7.5q-53 0 -94.5 18.5t-69.5 49.5q-33 33 -45.5 87t-12.5 126v453h-127v86l-41 -86h-213v-447q0 -78 24 -119t87 -41q59 0 86 9l8 -111q-23 -10 -56.5 -17.5t-78.5 -7.5 q-53 0 -93 18.5t-67 49.5q-33 33 -46 87t-13 126v453h-127zM4 90v14h16v23l21 6v-29h31v-14h-31v-61q0 -25 16 -25q8 0 13 2l2 -14q-12 -4 -21 -4q-12 0 -20 8q-10 10 -11 31v63h-16zM92 104h21v-22q10 27 34 27q2 0 2.5 -1.5t2.5 -1.5v-18q-2 0 -2 1t-5 1q-10 0 -18 -9 t-10 -22q-2 -2 -2 -4v-4v-59h-21v78q0 10 -1 18t-1 16zM162 18q0 45 71 45v3q0 6 -5 16t-23 10t-29 -8l-4 12q16 12 37 13q27 0 35 -15.5t8 -34.5v-41q0 -14 4 -26h-20l-3 12q-10 -16 -36 -16q-16 0 -25.5 10t-9.5 20zM182 23q0 -18 21 -19q20 0 28 16q2 4 2 11v18 q-18 0 -34.5 -4t-16.5 -22zM276 47q0 27 17.5 43t46.5 16q16 0 29 -4l-7 -16q-4 4 -22 4t-29.5 -12t-11.5 -31q0 -20 11.5 -31.5t27.5 -11.5q10 0 16 2t11 4l4 -16q-4 -2 -13.5 -4t-19.5 -2q-27 0 -43.5 16t-16.5 43zM383 47q0 25 13.5 43.5t41.5 18.5q29 0 38 -19.5 t9 -36.5q0 -4 -1 -5t-1 -3h-82q0 -23 12.5 -32t28.5 -9q20 0 33 6l4 -16q-6 -2 -14 -4t-25 -2q-29 0 -43 16t-14 43zM401 59h62q2 10 -3 21.5t-24 11.5q-16 0 -24.5 -11t-10.5 -22zM510 104h18l2 -22q6 27 33 27q2 0 2 -1.5t2 -1.5v-18q-2 0 -2 1t-4 1q-12 0 -19 -9t-10 -22 q-2 0 -2 -8v-59h-18v78q0 10 -1 18t-1 16zM582 90v14h18v23l21 6v-29h28v-14h-28v-61q0 -25 14 -25q10 0 12 2v-14q-4 -4 -18 -4q-10 0 -23 8q-6 12 -6 31v63h-18zM664 47q0 29 16 45.5t41 16.5t40 -16.5t15 -43.5q0 -33 -17.5 -47t-39.5 -14q-23 0 -39 15t-16 44zM686 47 q0 -43 35 -43t35 43q0 16 -8.5 30.5t-26.5 14.5t-26.5 -14.5t-8.5 -30.5zM801 104h20v-18h2q4 8 12.5 15.5t24.5 7.5q10 0 25.5 -10.5t15.5 -39.5v-67h-20v63q0 14 -6.5 24.5t-20.5 10.5q-20 0 -29 -20v-11v-67h-22v82q0 20 -2 30zM926 47q0 29 17.5 45.5t35.5 16.5 q14 0 23.5 -7.5t13.5 -13.5v16h20q-2 -8 -2 -30v-68q0 -39 -18 -53q-16 -12 -41 -12q-18 0 -39 8l4 16q8 -4 16.5 -6t18.5 -2q16 0 27.5 8t11.5 31v14h-2q-10 -18 -37 -18q-20 0 -34.5 15.5t-14.5 39.5zM948 47q0 -16 8.5 -28.5t24.5 -12.5q25 0 29 23q2 4 2 10v20v11 q-8 23 -31 22q-33 0 -33 -45zM1059 2q0 16 16 16q12 0 12 -16q0 -14 -14 -14t-14 14zM1098 90v14h18v7q0 29 12 41q14 8 29 8q14 0 19 -2l-2 -17q-8 4 -15 4q-14 0 -17 -10t-3 -22v-9h26v-14h-26v-98h-23v98h-18zM1171 47q0 29 17.5 45.5t40.5 16.5q27 0 41 -16.5t14 -43.5 q0 -33 -17.5 -47t-39.5 -14q-23 0 -39.5 15t-16.5 44zM1194 47q0 -43 33 -43q37 0 37 43q0 16 -8.5 30.5t-26.5 14.5t-26.5 -14.5t-8.5 -30.5zM1309 104h20v-18h2q4 8 13.5 15.5t23.5 7.5q12 0 25.5 -10.5t13.5 -39.5v-67h-18v63q0 14 -5.5 24.5t-19.5 10.5q-23 0 -31 -20 v-11v-67h-22v82q0 20 -2 30zM1430 90v14h18v23l20 6v-29h29v-14h-29v-61q0 -25 15 -25q8 0 12 2v-14q-8 -4 -18 -4t-23 8q-6 8 -6 31v63h-18zM1513 -6l7 18q12 -8 28 -8q20 0 21 14q0 14 -21 23q-31 12 -30 33q0 14 10 24.5t28 10.5q10 0 16.5 -2.5t12.5 -6.5l-6 -14 q-6 6 -23 6q-20 0 -20 -16q0 -12 23 -19q31 -14 30 -37q0 -33 -43 -32q-10 0 -18 2t-15 4z" />
<glyph unicode="&#x2022;" horiz-adv-x="495" d="M137 768q0 47 32 79t79 32t78.5 -32t31.5 -79t-31.5 -79t-78.5 -32t-79 32t-32 79z" />
<glyph unicode="&#x202f;" horiz-adv-x="360" />
<glyph unicode="&#x205f;" horiz-adv-x="450" />
<glyph unicode="&#x2122;" horiz-adv-x="925" d="M33 1430v51h309v-51h-131v-340h-49v340h-129zM367 1090v391h67l133 -299q10 23 21.5 46t21.5 46q23 49 44.5 102.5t41.5 104.5h72v-391h-53v294q-31 -74 -65 -148.5t-64 -145.5h-39l-129 299v-299h-51z" />
<glyph unicode="&#x25fc;" horiz-adv-x="1474" d="M0 0v1475h1475v-1475h-1475z" />
</font>
</defs>
</svg>
